<svg width="191" height="63" viewBox="0 0 191 63" fill="none" xmlns="http://www.w3.org/2000/svg">
<g clip-path="url(#clip0_361_1342)">
<path d="M58.1179 17.0967L191 18.4616L177.321 62.9998L30.7598 62.4251L44.3664 51.3624L51.3869 40.5152L58.1179 17.0967Z" fill="#0C3A46"/>
<path fill-rule="evenodd" clip-rule="evenodd" d="M22.5811 4.7408C22.5811 4.7408 44.7281 2.01104 59.9994 9.33829C59.9994 9.33829 62.7497 41.1616 35.7535 58.3303C35.7535 58.3303 55.2226 43.3885 56.5254 12.1399C56.5977 12.1399 41.6883 3.51959 22.5811 4.7408Z" fill="url(#paint0_linear_361_1342)"/>
<path fill-rule="evenodd" clip-rule="evenodd" d="M15.2711 43.4605C15.2711 43.4605 4.55945 29.3088 4.7042 8.69194C4.7042 8.69194 31.7728 -4.59769 59.9994 7.97358C59.9994 7.97358 32.3518 -9.55436 0.795898 7.47073C0.868274 7.47073 2.46054 27.2974 15.2711 43.4605Z" fill="url(#paint1_linear_361_1342)"/>
<path fill-rule="evenodd" clip-rule="evenodd" d="M51.3869 33.1883C51.3869 33.1883 45.814 48.3457 31.0493 57.9717C31.0493 57.9717 3.69118 45.9033 1.2867e-05 8.18945C1.2867e-05 8.18945 -0.0723631 29.4528 10.6393 45.3286C10.6393 45.3286 17.7321 56.1039 30.8321 62.4973C30.8321 62.4255 45.7416 50.3571 51.3869 33.1883Z" fill="url(#paint2_linear_361_1342)"/>
<path d="M56.9594 49.135C56.6699 47.842 55.5842 47.0518 54.3538 47.0518C52.1102 47.0518 51.1693 48.9195 51.1693 50.7873C51.1693 52.655 52.1102 54.5227 54.3538 54.5227C55.9461 54.5227 56.9594 53.3015 57.1041 51.793H57.9003C57.6831 53.8762 56.3804 55.1692 54.3538 55.1692C51.6759 55.1692 50.3008 53.086 50.3008 50.7873C50.3008 48.4885 51.6035 46.4053 54.3538 46.4053C55.9461 46.4053 57.5384 47.411 57.7555 49.135H56.9594Z" fill="white"/>
<path d="M60.1436 46.5488H66.006V47.2672H60.9397V50.2843H65.7165V51.0026H60.9397V54.3789H66.0784V55.0973H60.1436V46.5488Z" fill="white"/>
<path d="M68.1777 46.5488H72.086C73.4612 46.5488 74.6916 47.1953 74.6916 48.7757C74.6916 49.8533 74.1126 50.7153 73.0269 50.9308C74.1126 51.0745 74.4744 51.7928 74.5468 52.8704C74.5468 53.4451 74.5468 54.5944 74.9087 55.0254H74.0402C73.8231 54.7381 73.8231 54.0916 73.8231 53.7324C73.7507 52.5112 73.6783 51.2182 72.086 51.29H68.9739V55.0254H68.1777V46.5488ZM68.9739 50.5716H72.0137C73.0269 50.5716 73.8231 49.9251 73.8231 48.9194C73.8231 47.8419 73.244 47.2672 72.0137 47.2672H68.9739V50.5716Z" fill="white"/>
<path d="M76.2842 46.5488H83.0151V47.2672H80.0477V55.0254H79.2516V47.2672H76.2842V46.5488Z" fill="white"/>
<path d="M84.8965 46.5488H85.6926V55.0254H84.8965V46.5488Z" fill="white"/>
<path d="M88.5156 46.5488H93.9438V47.2672H89.3118V50.2843H93.3648V51.0026H89.3118V55.0254H88.5156V46.5488Z" fill="white"/>
<path d="M95.9697 46.5488H96.7659V55.0254H95.9697V46.5488Z" fill="white"/>
<path d="M99.5889 46.5488H105.451V47.2672H100.385V50.2843H105.162V51.0026H100.385V54.3789H105.524V55.0973H99.5889V46.5488Z" fill="white"/>
<path d="M107.622 46.5488H110.589C113.195 46.6207 114.498 47.9855 114.498 50.7871C114.498 53.5887 113.195 54.9536 110.589 55.0254H107.622V46.5488ZM108.418 54.3789H110.155C112.616 54.3789 113.702 53.3732 113.702 50.859C113.702 48.3447 112.616 47.339 110.155 47.339H108.418V54.3789Z" fill="white"/>
<path d="M121.518 52.2244C121.518 53.9485 122.749 54.5232 124.269 54.5232C125.137 54.5232 126.512 54.0203 126.512 52.7991C126.512 51.8652 125.571 51.4342 124.775 51.2905L122.893 50.8595C121.88 50.644 120.939 50.1412 120.939 48.8481C120.939 47.9861 121.446 46.4775 123.907 46.4775C125.571 46.4775 127.091 47.3396 127.091 49.1355H126.295C126.223 47.8424 125.21 47.1959 123.979 47.1959C122.893 47.1959 121.808 47.6269 121.808 48.8481C121.808 49.6383 122.387 49.9975 123.111 50.1412L125.21 50.644C126.44 50.9314 127.453 51.506 127.453 52.8709C127.453 53.4456 127.236 55.3133 124.196 55.3133C122.17 55.3133 120.722 54.3795 120.795 52.3681H121.518V52.2244Z" fill="white"/>
<path d="M132.158 46.5488H133.098L136.428 55.0254H135.559L134.546 52.3675H130.638L129.624 55.0254H128.756L132.158 46.5488ZM130.855 51.721H134.184L132.519 47.4109L130.855 51.721Z" fill="white"/>
<path d="M138.165 46.5488H143.593V47.2672H138.961V50.2843H143.014V51.0026H138.961V55.0254H138.165V46.5488Z" fill="white"/>
<path d="M145.548 46.5488H151.41V47.2672H146.344V50.2843H151.121V51.0026H146.344V54.3789H151.483V55.0973H145.548V46.5488Z" fill="white"/>
<path d="M152.713 46.5488H159.444V47.2672H156.476V55.0254H155.68V47.2672H152.713V46.5488Z" fill="white"/>
<path d="M163.642 51.5778L160.312 46.6211H161.253L164.076 50.9312L166.899 46.6211H167.84L164.438 51.5778V55.0977H163.642V51.5778Z" fill="white"/>
<path d="M77.2979 23.2031H79.1072L83.0879 38.3605H83.1603L87.4305 23.2031H89.5294L93.7996 38.3605H93.8719L97.8526 23.2031H99.5173L94.7404 40.5156H93.0034L88.5885 25.0709H88.299L83.8841 40.5156H82.0747L77.2979 23.2031Z" fill="white"/>
<path d="M101.472 23.2031H102.992V25.6455H101.472V23.2031ZM101.472 28.0161H102.992V40.5156H101.472V28.0161Z" fill="#00A2D6"/>
<path d="M104.511 23.2031H106.32L110.301 38.3605H110.373L114.643 23.2031H116.742L121.012 38.3605H121.085L125.066 23.2031H126.73L121.953 40.5156H120.216L115.801 25.0709H115.729L111.314 40.5156H109.505L104.511 23.2031Z" fill="white"/>
<path d="M133.027 23.2031H134.909L141.713 40.5156H139.903L137.804 35.1279H129.843L127.744 40.5156H125.935L133.027 23.2031ZM130.422 33.763H137.298L133.896 24.8553L130.422 33.763Z" fill="white"/>
<path d="M38.7212 30.0989C41.5439 29.8115 43.7152 27.5128 43.7152 24.6394C43.7152 21.6223 41.2544 19.1798 38.2146 19.1798C37.708 19.1798 37.2013 19.2517 36.6947 19.3953C35.6814 16.7374 33.1483 14.7979 30.1085 14.7979C26.7068 14.7979 23.8118 17.2403 23.2328 20.4729C22.9433 20.401 22.6538 20.401 22.3643 20.401C19.5416 20.401 17.2256 22.5561 17.2256 25.2859C17.2256 27.2973 18.456 29.0213 20.2654 29.7397" stroke="url(#paint3_linear_361_1342)" stroke-width="1.2377" stroke-miterlimit="10"/>
<path d="M24.0293 24.4241H29.8194C32.5697 24.4241 34.0172 21.2633 32.642 19.2519C31.3393 17.3842 28.2995 17.2405 26.9967 19.1801C26.3453 20.1858 26.3453 21.4788 27.431 22.269C28.0823 22.7 28.9509 22.9155 29.6746 22.5564" stroke="url(#paint4_linear_361_1342)" stroke-width="1.2377" stroke-miterlimit="10"/>
<path d="M23.0879 27.2255H38.0697C40.241 27.2255 41.399 24.7113 40.3134 23.1309C39.3001 21.6223 36.8393 21.5505 35.8261 23.059C35.3194 23.8492 35.3194 24.9268 36.1156 25.5014C36.6222 25.8606 37.3459 26.0043 37.925 25.717C38.5763 25.3578 38.7211 24.7113 38.3592 24.1366" stroke="url(#paint5_linear_361_1342)" stroke-width="1.2377" stroke-miterlimit="10"/>
<path d="M22.2197 30.0986H35.1026C37.1292 30.0986 38.2148 32.6847 37.2015 34.2651C36.2607 35.7737 34.017 35.8455 33.0761 34.3369C33.0037 34.2651 33.0037 34.1933 32.9314 34.0496" stroke="url(#paint6_linear_361_1342)" stroke-width="1.2377" stroke-miterlimit="10"/>
<path d="M20.3375 36.1328L17.3701 41.0176" stroke="url(#paint7_linear_361_1342)" stroke-width="1.2377" stroke-miterlimit="10"/>
<path d="M25.983 36.1328L23.0156 41.0176" stroke="url(#paint8_linear_361_1342)" stroke-width="1.2377" stroke-miterlimit="10"/>
<path d="M31.5562 36.1328L28.6611 41.0176" stroke="url(#paint9_linear_361_1342)" stroke-width="1.2377" stroke-miterlimit="10"/>
<path d="M37.2018 36.1328L34.2344 41.0176" stroke="url(#paint10_linear_361_1342)" stroke-width="1.2377" stroke-miterlimit="10"/>
<path d="M42.8463 36.1328L39.8789 41.0176" stroke="url(#paint11_linear_361_1342)" stroke-width="1.2377" stroke-miterlimit="10"/>
</g>
<defs>
<linearGradient id="paint0_linear_361_1342" x1="22.6155" y1="31.3004" x2="60.0938" y2="31.3004" gradientUnits="userSpaceOnUse">
<stop stop-color="#71B844"/>
<stop offset="1" stop-color="#00A2D6"/>
</linearGradient>
<linearGradient id="paint1_linear_361_1342" x1="0.832955" y1="21.7144" x2="60.0235" y2="21.7144" gradientUnits="userSpaceOnUse">
<stop stop-color="#71B844"/>
<stop offset="1" stop-color="#00A2D6"/>
</linearGradient>
<linearGradient id="paint2_linear_361_1342" x1="1.28668e-05" y1="35.3145" x2="51.4133" y2="35.3145" gradientUnits="userSpaceOnUse">
<stop stop-color="#71B844"/>
<stop offset="1" stop-color="#00A2D6"/>
</linearGradient>
<linearGradient id="paint3_linear_361_1342" x1="16.7298" y1="22.4135" x2="44.1515" y2="22.4135" gradientUnits="userSpaceOnUse">
<stop stop-color="#71B844"/>
<stop offset="1" stop-color="#00A2D6"/>
</linearGradient>
<linearGradient id="paint4_linear_361_1342" x1="24.007" y1="21.0773" x2="33.5907" y2="21.0773" gradientUnits="userSpaceOnUse">
<stop stop-color="#71B844"/>
<stop offset="1" stop-color="#00A2D6"/>
</linearGradient>
<linearGradient id="paint5_linear_361_1342" x1="23.1041" y1="24.5891" x2="41.1725" y2="24.5891" gradientUnits="userSpaceOnUse">
<stop stop-color="#71B844"/>
<stop offset="1" stop-color="#00A2D6"/>
</linearGradient>
<linearGradient id="paint6_linear_361_1342" x1="22.1901" y1="32.7776" x2="38.0094" y2="32.7776" gradientUnits="userSpaceOnUse">
<stop stop-color="#71B844"/>
<stop offset="1" stop-color="#00A2D6"/>
</linearGradient>
<linearGradient id="paint7_linear_361_1342" x1="17.0174" y1="38.5792" x2="20.7175" y2="38.5792" gradientUnits="userSpaceOnUse">
<stop stop-color="#71B844"/>
<stop offset="1" stop-color="#00A2D6"/>
</linearGradient>
<linearGradient id="paint8_linear_361_1342" x1="22.6371" y1="38.5792" x2="26.3372" y2="38.5792" gradientUnits="userSpaceOnUse">
<stop stop-color="#71B844"/>
<stop offset="1" stop-color="#00A2D6"/>
</linearGradient>
<linearGradient id="paint9_linear_361_1342" x1="28.2568" y1="38.5792" x2="31.9568" y2="38.5792" gradientUnits="userSpaceOnUse">
<stop stop-color="#71B844"/>
<stop offset="1" stop-color="#00A2D6"/>
</linearGradient>
<linearGradient id="paint10_linear_361_1342" x1="33.8765" y1="38.5792" x2="37.5766" y2="38.5792" gradientUnits="userSpaceOnUse">
<stop stop-color="#71B844"/>
<stop offset="1" stop-color="#00A2D6"/>
</linearGradient>
<linearGradient id="paint11_linear_361_1342" x1="39.4953" y1="38.5792" x2="43.1954" y2="38.5792" gradientUnits="userSpaceOnUse">
<stop stop-color="#71B844"/>
<stop offset="1" stop-color="#00A2D6"/>
</linearGradient>
<clipPath id="clip0_361_1342">
<rect width="191" height="63" fill="white"/>
</clipPath>
</defs>
</svg>
