<svg width="266" height="58" viewBox="0 0 266 58" fill="none" xmlns="http://www.w3.org/2000/svg">
<path d="M81.8444 36.2615C80.9002 36.2615 80.014 36.1743 79.186 36C78.358 35.8402 77.6244 35.5715 76.9852 35.1938C76.3606 34.8161 75.8667 34.3222 75.5035 33.712C75.1403 33.0874 74.9588 32.3248 74.9588 31.4241C74.9588 31.366 74.9588 31.3006 74.9588 31.228C74.9588 31.1554 74.966 31.0972 74.9806 31.0537H78.7502C78.7502 31.0972 78.743 31.1554 78.7284 31.228C78.7284 31.2861 78.7284 31.3369 78.7284 31.3805C78.7284 31.8454 78.8446 32.2231 79.0771 32.5136C79.324 32.7896 79.6654 32.993 80.1012 33.1237C80.537 33.2399 81.0454 33.298 81.6265 33.298C81.9461 33.298 82.2439 33.2835 82.5199 33.2545C82.7959 33.2254 83.0429 33.1746 83.2608 33.1019C83.4787 33.0293 83.6675 32.9421 83.8273 32.8404C84.0016 32.7242 84.1251 32.5935 84.1977 32.4482C84.2849 32.2884 84.3285 32.1069 84.3285 31.9035C84.3285 31.5694 84.1977 31.2934 83.9362 31.0755C83.6893 30.8576 83.3479 30.676 82.9121 30.5307C82.4908 30.3854 82.0115 30.2474 81.474 30.1167C80.9365 29.986 80.3772 29.848 79.7961 29.7027C79.2151 29.5574 78.6558 29.3758 78.1183 29.1579C77.5808 28.94 77.0942 28.664 76.6584 28.3299C76.2371 27.9958 75.8957 27.5818 75.6343 27.0879C75.3873 26.5795 75.2638 25.9693 75.2638 25.2575C75.2638 24.4731 75.4309 23.7976 75.765 23.2311C76.0991 22.65 76.5567 22.1779 77.1378 21.8147C77.7334 21.4515 78.4161 21.1901 79.186 21.0303C79.9559 20.8559 80.7767 20.7688 81.6483 20.7688C82.5054 20.7688 83.3043 20.8559 84.0452 21.0303C84.8006 21.2046 85.4688 21.4806 86.0499 21.8583C86.6309 22.2215 87.0813 22.6863 87.4009 23.2528C87.735 23.8049 87.9093 24.4731 87.9238 25.2575V25.519H84.1759V25.3665C84.1759 25.0324 84.0815 24.7418 83.8927 24.4949C83.7183 24.2334 83.4496 24.03 83.0864 23.8848C82.7233 23.725 82.2729 23.6451 81.7355 23.6451C81.198 23.6451 80.7404 23.6959 80.3627 23.7976C79.9995 23.8993 79.7162 24.0446 79.5129 24.2334C79.324 24.4222 79.2296 24.6474 79.2296 24.9089C79.2296 25.2285 79.3531 25.49 79.6 25.6933C79.8615 25.8967 80.2102 26.071 80.646 26.2163C81.0818 26.3616 81.5684 26.4996 82.1059 26.6303C82.6434 26.7465 83.1954 26.8773 83.7619 27.0225C84.343 27.1533 84.9023 27.3276 85.4398 27.5455C85.9772 27.7489 86.4639 28.0176 86.8997 28.3517C87.3355 28.6713 87.6769 29.0708 87.9238 29.5502C88.1853 30.0295 88.316 30.6106 88.316 31.2934C88.316 32.4845 88.0328 33.4433 87.4662 34.1696C86.9142 34.896 86.1443 35.4262 85.1565 35.7603C84.1832 36.0944 83.0792 36.2615 81.8444 36.2615ZM97.7133 36.2615C96.2752 36.2615 95.0331 36.0363 93.9872 35.586C92.9558 35.1357 92.1641 34.4602 91.6121 33.5595C91.0601 32.6589 90.7841 31.5403 90.7841 30.2039V21.0303H94.7063V30.1167C94.7063 31.0755 94.9605 31.8308 95.4689 32.3829C95.9774 32.9349 96.7255 33.2109 97.7133 33.2109C98.7011 33.2109 99.4565 32.9349 99.9795 32.3829C100.502 31.8308 100.764 31.0755 100.764 30.1167V21.0303H104.664V30.2039C104.664 31.5403 104.388 32.6589 103.836 33.5595C103.284 34.4602 102.493 35.1357 101.461 35.586C100.43 36.0363 99.1805 36.2615 97.7133 36.2615ZM114.104 36.2615C113.16 36.2615 112.273 36.1743 111.445 36C110.617 35.8402 109.884 35.5715 109.245 35.1938C108.62 34.8161 108.126 34.3222 107.763 33.712C107.4 33.0874 107.218 32.3248 107.218 31.4241C107.218 31.366 107.218 31.3006 107.218 31.228C107.218 31.1554 107.225 31.0972 107.24 31.0537H111.01C111.01 31.0972 111.002 31.1554 110.988 31.228C110.988 31.2861 110.988 31.3369 110.988 31.3805C110.988 31.8454 111.104 32.2231 111.336 32.5136C111.583 32.7896 111.925 32.993 112.361 33.1237C112.796 33.2399 113.305 33.298 113.886 33.298C114.206 33.298 114.503 33.2835 114.779 33.2545C115.055 33.2254 115.302 33.1746 115.52 33.1019C115.738 33.0293 115.927 32.9421 116.087 32.8404C116.261 32.7242 116.385 32.5935 116.457 32.4482C116.544 32.2884 116.588 32.1069 116.588 31.9035C116.588 31.5694 116.457 31.2934 116.196 31.0755C115.949 30.8576 115.607 30.676 115.172 30.5307C114.75 30.3854 114.271 30.2474 113.733 30.1167C113.196 29.986 112.637 29.848 112.056 29.7027C111.474 29.5574 110.915 29.3758 110.378 29.1579C109.84 28.94 109.354 28.664 108.918 28.3299C108.497 27.9958 108.155 27.5818 107.894 27.0879C107.647 26.5795 107.523 25.9693 107.523 25.2575C107.523 24.4731 107.69 23.7976 108.024 23.2311C108.359 22.65 108.816 22.1779 109.397 21.8147C109.993 21.4515 110.676 21.1901 111.445 21.0303C112.215 20.8559 113.036 20.7688 113.908 20.7688C114.765 20.7688 115.564 20.8559 116.305 21.0303C117.06 21.2046 117.728 21.4806 118.309 21.8583C118.89 22.2215 119.341 22.6863 119.66 23.2528C119.994 23.8049 120.169 24.4731 120.183 25.2575V25.519H116.435V25.3665C116.435 25.0324 116.341 24.7418 116.152 24.4949C115.978 24.2334 115.709 24.03 115.346 23.8848C114.983 23.725 114.532 23.6451 113.995 23.6451C113.457 23.6451 113 23.6959 112.622 23.7976C112.259 23.8993 111.976 24.0446 111.772 24.2334C111.583 24.4222 111.489 24.6474 111.489 24.9089C111.489 25.2285 111.612 25.49 111.859 25.6933C112.121 25.8967 112.47 26.071 112.905 26.2163C113.341 26.3616 113.828 26.4996 114.365 26.6303C114.903 26.7465 115.455 26.8773 116.021 27.0225C116.602 27.1533 117.162 27.3276 117.699 27.5455C118.237 27.7489 118.723 28.0176 119.159 28.3517C119.595 28.6713 119.936 29.0708 120.183 29.5502C120.445 30.0295 120.575 30.6106 120.575 31.2934C120.575 32.4845 120.292 33.4433 119.726 34.1696C119.174 34.896 118.404 35.4262 117.416 35.7603C116.443 36.0944 115.339 36.2615 114.104 36.2615ZM126.835 36V24.2334H121.976V21.0303H135.595V24.2334H130.735V36H126.835ZM134.544 36L140.166 21.0303H144.85L150.472 36H146.31L145.417 33.407H139.446L138.553 36H134.544ZM140.383 30.4871H144.458L143.39 27.3276C143.332 27.1678 143.26 26.9717 143.173 26.7392C143.1 26.4923 143.02 26.2381 142.933 25.9766C142.86 25.7006 142.788 25.4246 142.715 25.1486C142.642 24.8726 142.57 24.6329 142.497 24.4295H142.345C142.286 24.7055 142.199 25.0178 142.083 25.3665C141.981 25.7151 141.872 26.0638 141.756 26.4124C141.654 26.761 141.56 27.0661 141.473 27.3276L140.383 30.4871ZM152.261 36V21.0303H156.161V36H152.261ZM159.432 36V21.0303H162.897L168.344 27.9813C168.446 28.0975 168.577 28.2645 168.736 28.4824C168.911 28.7003 169.078 28.9255 169.238 29.1579C169.397 29.3758 169.514 29.5502 169.586 29.6809L169.695 29.6591C169.695 29.3395 169.695 29.0345 169.695 28.7439C169.695 28.4389 169.695 28.1847 169.695 27.9813V21.0303H173.312V36H169.87L164.095 28.6786C163.906 28.4461 163.725 28.2064 163.55 27.9595C163.391 27.7125 163.26 27.5092 163.158 27.3494L163.049 27.3712C163.049 27.6036 163.049 27.8433 163.049 28.0902C163.049 28.3227 163.049 28.5188 163.049 28.6786V36H159.432ZM175.123 36L180.745 21.0303H185.43L191.052 36H186.89L185.997 33.407H180.026L179.133 36H175.123ZM180.963 30.4871H185.038L183.97 27.3276C183.912 27.1678 183.839 26.9717 183.752 26.7392C183.68 26.4923 183.6 26.2381 183.512 25.9766C183.44 25.7006 183.367 25.4246 183.295 25.1486C183.222 24.8726 183.149 24.6329 183.077 24.4295H182.924C182.866 24.7055 182.779 25.0178 182.663 25.3665C182.561 25.7151 182.452 26.0638 182.336 26.4124C182.234 26.761 182.14 27.0661 182.053 27.3276L180.963 30.4871ZM192.841 36V21.0303H201.992C202.762 21.0303 203.46 21.1828 204.084 21.4879C204.709 21.7929 205.203 22.2215 205.566 22.7735C205.944 23.3255 206.133 23.9719 206.133 24.7128C206.133 25.3665 206.016 25.9258 205.784 26.3906C205.566 26.8555 205.268 27.2332 204.89 27.5237C204.527 27.8142 204.113 28.0321 203.648 28.1774V28.2645C204.186 28.3808 204.673 28.5914 205.108 28.8965C205.544 29.187 205.886 29.5865 206.133 30.0949C206.394 30.6033 206.525 31.2207 206.525 31.9471C206.525 32.8041 206.321 33.5377 205.915 34.1478C205.508 34.7434 204.97 35.201 204.302 35.5206C203.634 35.8402 202.886 36 202.058 36H192.841ZM196.741 32.993H200.99C201.455 32.993 201.825 32.855 202.101 32.579C202.392 32.303 202.537 31.8817 202.537 31.3151C202.537 31.0101 202.472 30.7413 202.341 30.5089C202.225 30.262 202.043 30.0731 201.796 29.9424C201.564 29.8116 201.273 29.7463 200.925 29.7463H196.741V32.993ZM196.741 26.9789H200.641C200.961 26.9789 201.23 26.9136 201.448 26.7828C201.68 26.6521 201.854 26.4705 201.971 26.2381C202.101 26.0057 202.167 25.7296 202.167 25.4101C202.167 24.9452 202.029 24.582 201.753 24.3206C201.477 24.0591 201.128 23.9283 200.707 23.9283H196.741V26.9789ZM209.077 36V21.0303H212.977V36H209.077ZM216.248 36V21.0303H220.148V32.7969H227.753V36H216.248ZM229.824 36V21.0303H233.724V36H229.824ZM240.743 36V24.2334H235.884V21.0303H249.503V24.2334H244.643V36H240.743ZM255.675 36V30.0731L249.814 21.0303H254.324L257.68 26.6303H257.789L261.123 21.0303H265.393L259.597 30.0731V36H255.675Z" fill="white"/>
<path d="M36.3183 55.5685C34.0707 56.1768 31.6423 56.5408 28.9694 56.5408C13.7859 56.5408 1.51961 44.2129 1.51961 29.0903C1.51961 19.6158 6.55961 10.7498 14.6361 5.64884V12.0864C14.6361 12.5115 15.0001 12.8144 15.3641 12.8144C15.7281 12.8144 16.0921 12.4504 16.0921 12.0864V4.19021C16.0921 3.76511 15.7281 3.46216 15.3641 3.46216H7.46813C7.04305 3.46216 6.7401 3.8262 6.7401 4.19021C6.7401 4.55425 7.10413 4.91826 7.46813 4.91826H12.8134C4.85915 10.3859 0 19.433 0 29.0295C0 45.0022 12.9968 58 29.028 58C31.8205 58 34.4321 57.636 36.7406 57.0277C37.1657 56.9055 37.4076 56.4804 37.2879 56.1164C37.107 55.6913 36.6819 55.4494 36.3179 55.5692L36.3183 55.5685Z" fill="url(#paint0_linear_748_651)"/>
<path d="M50.4683 52.9567H45.4283C53.3242 47.4304 58 38.6843 58 29.0288C58 13.0561 45.0032 0 28.972 0C26.3603 0 23.6266 0.364037 21.1373 1.03342C20.7122 1.15555 20.4703 1.58066 20.5901 1.94467C20.7122 2.36977 21.1373 2.6117 21.5013 2.49191C23.8687 1.82019 26.4802 1.45614 28.9698 1.45614C44.1533 1.45614 56.4196 13.7841 56.4196 28.9067C56.4196 38.5032 51.4994 47.2471 43.2418 52.4095V45.7302C43.2418 45.3051 42.8778 45.0021 42.5138 45.0021C42.1498 45.0021 41.7858 45.3662 41.7858 45.7302L41.7834 53.6871C41.7834 54.1122 42.1475 54.4152 42.5115 54.4152H50.4658C50.8908 54.4152 51.1938 54.0511 51.1938 53.6871C51.1961 53.3231 50.8933 52.9567 50.4683 52.9567Z" fill="url(#paint1_linear_748_651)"/>
<path d="M40.569 10.2639C40.4469 10.022 40.205 9.8388 39.902 9.77773C33.0984 9.4137 25.4466 13.7258 21.3786 20.2857C17.4307 26.662 17.3696 34.011 21.3176 40.935C20.5896 43.1826 19.9202 45.4303 19.434 47.7976C19.373 48.2227 19.6172 48.5868 19.9813 48.7089H20.1645C20.5285 48.7089 20.8315 48.467 20.8925 48.1006C21.3786 45.8529 21.9846 43.6664 22.7149 41.4796C28.7272 41.3575 34.9813 37.7758 38.8099 32.1272C43.1805 25.8117 43.8476 17.7933 40.569 10.2639ZM37.5934 31.3382C34.1316 36.3784 28.6056 39.6571 23.26 39.9625C25.7495 32.9165 29.3944 26.1759 34.3125 19.5574C34.5543 19.1933 34.4956 18.7682 34.1293 18.524C33.7652 18.282 33.3401 18.3408 33.0959 18.7071C28.1803 25.2644 24.5355 32.0049 21.9851 38.9896C19.0095 32.9158 19.2514 26.6009 22.6521 21.0743C26.236 15.3037 33.0372 11.236 39.0495 11.236H39.4135C43.2417 20.7688 39.9607 27.8762 37.5934 31.3382Z" fill="url(#paint2_linear_748_651)"/>
<defs>
<linearGradient id="paint0_linear_748_651" x1="0.0532882" y1="29.0146" x2="58.0242" y2="29.0146" gradientUnits="userSpaceOnUse">
<stop stop-color="#71B844"/>
<stop offset="1" stop-color="#00A2D6"/>
</linearGradient>
<linearGradient id="paint1_linear_748_651" x1="0.0532882" y1="29.0146" x2="58.0242" y2="29.0146" gradientUnits="userSpaceOnUse">
<stop stop-color="#71B844"/>
<stop offset="1" stop-color="#00A2D6"/>
</linearGradient>
<linearGradient id="paint2_linear_748_651" x1="0.0532882" y1="29.0146" x2="58.0242" y2="29.0146" gradientUnits="userSpaceOnUse">
<stop stop-color="#71B844"/>
<stop offset="1" stop-color="#00A2D6"/>
</linearGradient>
</defs>
</svg>
