<svg width="195" height="73" viewBox="0 0 195 73" fill="none" xmlns="http://www.w3.org/2000/svg">
<path d="M88.1464 28.8303C88.1464 28.7618 88.1464 28.7618 88.1464 28.6933C88.1464 28.6933 88.1464 28.6933 88.1464 28.6248V28.5564C88.1464 28.5564 88.1464 28.5564 88.1464 28.4879V28.4194V28.3509V28.2824C88.1464 28.2824 88.1464 28.2824 88.1464 28.214C88.1464 28.214 88.1464 28.214 88.1464 28.1455C88.1464 28.1455 88.1464 28.1455 88.1464 28.077C88.1464 28.077 88.1464 28.077 88.1464 28.0085C88.1464 28.0085 88.1464 28.0085 88.1464 27.94C88.1464 27.94 88.1464 27.94 88.1464 27.8716C88.1464 27.8716 88.1464 27.8716 88.0774 27.8031L73.996 12.2581L73.9269 12.1896C73.9269 12.1896 73.8579 12.1896 73.8579 12.1211C73.8579 12.1211 73.8579 12.1211 73.7889 12.1211C73.7889 12.1211 73.7889 12.1211 73.7199 12.1211C73.7199 12.1211 73.7199 12.1211 73.6508 12.1211H73.5818C73.5818 12.1211 73.5818 12.1211 73.5128 12.1211H73.4438H73.3747C73.3057 12.1211 73.2367 12.1211 73.1677 12.1211H24.0898C24.0208 12.1211 23.9517 12.1211 23.8827 12.1211H23.8137H23.7446C23.7446 12.1211 23.7446 12.1211 23.6756 12.1211H23.6066C23.6066 12.1211 23.6066 12.1211 23.5376 12.1211C23.5376 12.1211 23.5376 12.1211 23.4685 12.1211C23.4685 12.1211 23.4685 12.1211 23.3995 12.1211C23.3995 12.1211 23.3305 12.1211 23.3305 12.1896C23.3305 12.1896 23.3305 12.1896 23.2615 12.1896L23.1924 12.2581L9.11102 28.077C9.11102 28.077 9.11102 28.077 9.04199 28.1455C9.04199 28.1455 9.04199 28.1455 9.04199 28.214C9.04199 28.214 9.04199 28.214 9.04199 28.2824C9.04199 28.2824 9.04199 28.2824 9.04199 28.3509C9.04199 28.3509 9.04199 28.3509 9.04199 28.4194C9.04199 28.4194 9.04199 28.4194 9.04199 28.4879C9.04199 28.4879 9.04199 28.4879 9.04199 28.5564V28.6248C9.04199 28.6248 9.04199 28.6248 9.04199 28.6933V28.7618C9.04199 28.7618 9.04199 28.7618 9.04199 28.8303V28.8988C9.04199 28.8988 9.04199 28.8988 9.04199 28.9672C9.04199 29.0357 9.04199 29.0357 9.04199 29.1042V29.1727C9.04199 29.1727 9.04199 29.1727 9.04199 29.2412V29.3096C9.04199 29.3096 9.04199 29.3097 9.04199 29.3781V29.4466V29.5151V29.5836C9.04199 29.5836 9.04199 29.5836 9.04199 29.6521C9.04199 29.6521 9.04199 29.6521 9.04199 29.7205C9.04199 29.7205 9.04199 29.7205 9.04199 29.789C9.04199 29.789 9.04199 29.789 9.04199 29.8575C9.04199 29.8575 9.04199 29.8575 9.04199 29.926C9.04199 29.926 9.04199 29.926 9.04199 29.9945C9.04199 29.9945 9.04199 29.9945 9.11102 30.0629L47.5588 72.5892C47.5588 72.6577 47.6278 72.6577 47.6969 72.7262C47.7659 72.7946 47.7659 72.7946 47.8349 72.7946C47.9039 72.7946 47.9039 72.8631 47.973 72.8631C48.042 72.8631 48.111 72.9316 48.111 72.9316C48.18 72.9316 48.2491 72.9316 48.3181 72.9316H48.3871H48.4562C48.5252 72.9316 48.5942 72.9316 48.6632 72.9316C48.7323 72.9316 48.8013 72.9316 48.8013 72.8631C48.8703 72.8631 48.9393 72.7946 48.9393 72.7946C49.0084 72.7946 49.0084 72.7262 49.0774 72.7262C49.0774 72.7262 49.0774 72.7262 49.1464 72.6577C49.4225 71.8359 49.6986 71.0142 49.9747 70.1924C50.3199 69.0282 50.9411 67.9325 51.3553 66.7684L51.1482 67.0423L62.8827 30.0629H84.0739C85.1783 29.926 86.3517 29.9945 87.5252 30.0629L87.8703 29.7205C87.8703 29.7205 87.8703 29.7205 87.9393 29.6521C87.9393 29.6521 87.9393 29.6521 87.9393 29.5836C87.9393 29.5836 87.9393 29.5836 87.9393 29.5151C87.9393 29.5151 87.9393 29.5151 87.9393 29.4466C87.9393 29.4466 87.9393 29.4466 87.9393 29.3781C87.9393 29.3781 87.9393 29.3781 87.9393 29.3096C87.9393 29.3096 87.9393 29.3096 87.9393 29.2412V29.1727C87.9393 29.1727 87.9393 29.1727 87.9393 29.1042V29.0357C87.9393 29.0357 87.9393 29.0357 87.9393 28.9672V28.8988C87.9393 28.8988 87.9393 28.8988 87.9393 28.8303C88.1464 28.8988 88.1464 28.8988 88.1464 28.8303ZM45.9022 14.4494L34.9269 26.9813L26.2986 14.4494H45.9022ZM48.4562 15.0657L59.5004 27.6661H37.4119L48.4562 15.0657ZM23.9517 15.1342L32.6491 27.6661H12.6314L23.9517 15.1342ZM12.5623 29.9945H33.9606L45.6951 66.9738L12.5623 29.9945ZM48.4562 67.9325L36.4455 29.9945H60.4668L48.4562 67.9325ZM61.9854 26.9813L51.0101 14.4494H70.6137L61.9854 26.9813ZM64.3323 27.6661L73.0296 15.1342L84.35 27.6661H64.3323Z" fill="url(#paint0_linear_361_1158)"/>
<path d="M0.0690266 10.546C8.35221 10.8884 10.2159 12.6689 10.492 20.955L10.6301 20.8865C10.9752 12.6689 12.7699 10.8199 21.1221 10.546L21.0531 10.409C12.7699 10.0666 10.9062 8.28612 10.6301 0L10.492 0.0684803C10.1469 8.28612 8.35221 10.1351 0 10.409L0.0690266 10.546Z" fill="url(#paint1_linear_361_1158)"/>
<path d="M62.8143 29.447L195 28.4883L179.883 72.932L48.1807 73.0005L62.8143 29.447Z" fill="#0C3A46"/>
<path d="M67.0934 44.4434H72.5465C74.4103 44.4434 75.8598 45.1282 76.8262 46.4293C77.7235 47.5935 78.2067 49.1 78.2067 50.949C78.2067 52.3871 77.9306 53.6197 77.3784 54.7839C76.412 56.8383 74.8244 57.797 72.4775 57.797H67.0244V44.4434H67.0934ZM72.1324 56.222C72.7536 56.222 73.2368 56.1535 73.651 56.0165C74.3412 55.8111 74.9625 55.3317 75.3766 54.6469C75.7218 54.0991 75.9979 53.4143 76.1359 52.5925C76.2049 52.1132 76.274 51.6338 76.274 51.2229C76.274 49.5794 75.9288 48.2783 75.3076 47.388C74.6173 46.4978 73.5819 46.0184 72.1324 46.0184H68.8881V56.2904H72.1324V56.222Z" fill="white"/>
<path d="M84.074 44.4434V52.7295C84.074 53.6882 84.2811 54.51 84.6262 55.1263C85.1784 56.085 86.0758 56.5644 87.3873 56.5644C88.9058 56.5644 90.0103 56.0165 90.5625 54.9893C90.8386 54.4415 91.0457 53.6197 91.0457 52.661V44.4434H92.9094V51.9077C92.9094 53.5512 92.7023 54.7839 92.2191 55.6741C91.3908 57.3177 89.8722 58.0709 87.5943 58.0709C85.3165 58.0709 83.7979 57.2492 82.9696 55.6741C82.5554 54.7839 82.2793 53.5512 82.2793 51.9077V44.4434H84.074Z" fill="white"/>
<path d="M97.3965 44.4434H103.609C104.644 44.4434 105.473 44.5803 106.163 44.9227C107.405 45.4706 108.027 46.5662 108.027 48.0728C108.027 48.8946 107.889 49.5109 107.543 50.0587C107.198 50.5381 106.715 50.949 106.163 51.2914C106.715 51.4968 107.06 51.7707 107.336 52.1132C107.612 52.4556 107.75 53.0034 107.75 53.8252L107.819 55.6056C107.819 56.085 107.889 56.4959 107.958 56.7698C108.096 57.1807 108.234 57.4546 108.51 57.5916V57.8655H106.301C106.232 57.7285 106.163 57.5916 106.163 57.3861C106.094 57.1807 106.094 56.8383 106.094 56.3589L105.956 54.0991C105.887 53.2088 105.611 52.661 104.989 52.3186C104.644 52.1816 104.092 52.0447 103.333 52.0447H99.1912V57.797H97.3965V44.4434ZM103.471 50.5381C104.299 50.5381 104.989 50.4011 105.473 50.0587C105.956 49.7163 106.232 49.1 106.232 48.2098C106.232 47.2511 105.887 46.6347 105.196 46.2923C104.851 46.0869 104.299 46.0184 103.678 46.0184H99.1912V50.6066H103.471V50.5381Z" fill="white"/>
<path d="M116.241 44.4434H118.312L123.212 57.797H121.211L119.83 53.8252H114.515L113.066 57.797H111.133L116.241 44.4434ZM119.209 52.3186L117.138 46.4293L114.998 52.3186H119.209Z" fill="white"/>
<path d="M126.387 44.4434H128.527L135.292 55.2632V44.4434H137.017V57.797H134.947L128.044 46.9771V57.797H126.318V44.4434H126.387Z" fill="white"/>
<path d="M141.918 44.4434H143.782V57.797H141.918V44.4434Z" fill="#00A2D6"/>
<path d="M150.27 44.4434V52.7295C150.27 53.6882 150.477 54.51 150.822 55.1263C151.375 56.085 152.272 56.5644 153.584 56.5644C155.102 56.5644 156.207 56.0165 156.759 54.9893C157.035 54.4415 157.242 53.6197 157.242 52.661V44.4434H159.106V51.9077C159.106 53.5512 158.899 54.7839 158.415 55.6741C157.587 57.3177 156.069 58.0709 153.791 58.0709C151.513 58.0709 149.994 57.2492 149.166 55.6741C148.752 54.7839 148.476 53.5512 148.476 51.9077V44.4434H150.27Z" fill="white"/>
<path d="M163.316 44.4434H165.939L169.805 55.7426L173.67 44.4434H176.224V57.797H174.498V49.9218C174.498 49.6479 174.498 49.1685 174.498 48.5522C174.498 47.9359 174.498 47.2511 174.498 46.4978L170.633 57.7285H168.838L164.973 46.4978V46.9086C164.973 47.2511 164.973 47.7304 164.973 48.4152C164.973 49.1 164.973 49.5794 164.973 49.9218V57.797H163.247V44.4434H163.316Z" fill="white"/>
<path d="M66.335 33.624H67.3704L69.9934 40.1981L72.6164 33.624H73.6518V41.0884H72.9615V34.6512L70.4075 41.0884H69.7173L67.1633 34.6512V41.0884H66.473V33.624H66.335Z" fill="white"/>
<path d="M78.2071 33.624H79.0354L82.0036 41.0884H81.2443L80.3469 38.76H76.8956L75.9292 41.0884H75.1699L78.2071 33.624ZM77.1027 38.1437H80.0708L78.6212 34.3088L77.1027 38.1437Z" fill="white"/>
<path d="M83.5225 33.624H86.1455C88.4233 33.6925 89.5968 34.9251 89.5968 37.3904C89.5968 39.8557 88.4233 41.0884 86.1455 41.1569H83.5225V33.624ZM84.2818 40.4721H85.8003C87.9402 40.4721 88.9065 39.5818 88.9065 37.322C88.9065 35.0621 87.9402 34.1719 85.8003 34.1719H84.2818V40.4721Z" fill="white"/>
<path d="M91.668 33.624H96.845V34.2403H92.3582V36.9111H96.5688V37.5274H92.3582V40.4721H96.914V41.0884H91.668V33.624Z" fill="white"/>
<path d="M101.814 33.624H102.574L104.299 40.1981L106.163 33.624H107.06L108.924 40.1981L110.65 33.624H111.34L109.269 41.0884H108.51L106.577 34.3773L104.645 41.0884H103.885L101.814 33.624Z" fill="white"/>
<path d="M113.135 33.624H113.825V41.0884H113.135V33.624Z" fill="white"/>
<path d="M115.481 33.624H121.487V34.2403H118.864V41.0884H118.173V34.2403H115.55V33.624H115.481Z" fill="white"/>
<path d="M123.006 33.624H123.696V36.8426H128.183V33.624H128.873V41.0884H128.183V37.4589H123.696V41.0884H123.006V33.624Z" fill="white"/>
<path d="M66.4727 66.1518L68.6125 63.1387H68.9576V66.2203H69.6479V66.5627H68.9576V67.6584H68.6125V66.5627H66.4727V66.1518ZM68.6125 66.1518V63.6865L66.8868 66.1518H68.6125Z" fill="white"/>
<path d="M74.4799 65.3986C74.4799 66.4943 74.2038 67.727 72.8923 67.727C71.5808 67.727 71.3047 66.4258 71.3047 65.3986C71.3047 64.303 71.5808 63.0703 72.8923 63.0703C74.2038 63.0703 74.4799 64.3714 74.4799 65.3986ZM71.7188 65.3986C71.7188 66.2204 71.8569 67.3846 72.8923 67.3846C73.9277 67.3846 74.0657 66.1519 74.0657 65.3986C74.0657 64.6454 73.9277 63.4127 72.8923 63.4127C71.8569 63.4127 71.7188 64.6454 71.7188 65.3986Z" fill="white"/>
<path d="M78.3452 64.3032C78.3452 64.988 78.0691 65.5358 77.3098 65.5358C76.5505 65.5358 76.2744 64.988 76.2744 64.3032C76.2744 63.6184 76.5505 63.0706 77.3098 63.0706C78.0691 63.0706 78.3452 63.6184 78.3452 64.3032ZM76.6195 64.3032C76.6195 64.7141 76.7576 65.2619 77.3098 65.2619C77.862 65.2619 78.0001 64.7141 78.0001 64.3032C78.0001 63.8923 77.862 63.3445 77.3098 63.3445C76.7576 63.3445 76.6195 63.8923 76.6195 64.3032ZM80.0018 62.9336H80.278L77.3098 67.8642H76.9647L80.0018 62.9336ZM81.2443 66.4946C81.2443 67.1794 80.9682 67.7272 80.2089 67.7272C79.4496 67.7272 79.1735 67.1794 79.1735 66.4946C79.1735 65.8098 79.4496 65.2619 80.2089 65.2619C80.8992 65.2619 81.2443 65.8098 81.2443 66.4946ZM79.5187 66.4946C79.5187 66.9054 79.6567 67.4533 80.2089 67.4533C80.7611 67.4533 80.8992 66.9054 80.8992 66.4946C80.8992 66.0837 80.7611 65.5358 80.2089 65.5358C79.6567 65.6043 79.5187 66.0837 79.5187 66.4946Z" fill="white"/>
<path d="M86.3527 66.1522C86.3527 67.1109 87.043 67.3848 87.8713 67.3848C88.3545 67.3848 89.1138 67.1109 89.1138 66.4261C89.1138 65.8782 88.5616 65.6728 88.1474 65.6043L87.112 65.3304C86.5598 65.1934 86.0766 64.9195 86.0766 64.2347C86.0766 63.7554 86.3527 62.9336 87.6643 62.9336C88.5616 62.9336 89.3899 63.413 89.3899 64.3717H88.9758C88.9758 63.6869 88.3545 63.276 87.7333 63.276C87.112 63.276 86.5598 63.4814 86.5598 64.1662C86.5598 64.5771 86.905 64.7826 87.2501 64.851L88.3545 65.125C89.0448 65.3304 89.597 65.6043 89.597 66.3576C89.597 66.7 89.4589 67.6587 87.8023 67.6587C86.6979 67.6587 85.8696 67.1794 85.9386 66.0152H86.3527V66.1522Z" fill="white"/>
<path d="M90.9082 63.002H94.6356V63.3444H92.979V67.5901H92.5648V63.3444H90.9082V63.002Z" fill="white"/>
<path d="M96.1543 63.002H98.2941C99.0534 63.002 99.7437 63.3444 99.7437 64.2346C99.7437 64.8509 99.4676 65.2618 98.8463 65.3988C99.4676 65.4672 99.6056 65.8781 99.6746 66.426C99.6746 66.7684 99.6746 67.3847 99.8817 67.5901H99.3985C99.2605 67.3847 99.2605 67.0423 99.2605 66.8368C99.2605 66.2205 99.1915 65.4672 98.2941 65.4672H96.6375V67.5217H96.2233V63.002H96.1543ZM96.6375 65.1933H98.2941C98.8463 65.1933 99.3295 64.8509 99.3295 64.3031C99.3295 63.7552 98.9844 63.4128 98.2941 63.4128H96.6375V65.1933Z" fill="white"/>
<path d="M103.609 62.9336C105.059 62.9336 105.818 64.0978 105.818 65.3304C105.818 66.563 105.059 67.7272 103.609 67.7272C102.16 67.7272 101.4 66.563 101.4 65.3304C101.4 64.0978 102.16 62.9336 103.609 62.9336ZM103.609 67.3848C104.852 67.3848 105.335 66.3576 105.335 65.3304C105.335 64.3032 104.783 63.276 103.609 63.276C102.367 63.276 101.884 64.3032 101.884 65.3304C101.884 66.3576 102.367 67.3848 103.609 67.3848Z" fill="white"/>
<path d="M107.612 63.002H108.095L110.788 66.9053V63.002H111.202V67.6586H110.718L108.026 63.7552V67.6586H107.612V63.002Z" fill="white"/>
<path d="M117.345 67.6586H117L116.931 66.8368C116.586 67.5217 115.965 67.7956 115.344 67.7956C113.894 67.7956 113.135 66.6314 113.135 65.3988C113.135 64.1661 113.894 63.002 115.344 63.002C116.31 63.002 117.138 63.5498 117.276 64.5085H116.862C116.793 63.9607 116.241 63.3444 115.344 63.3444C114.101 63.3444 113.618 64.3716 113.618 65.3988C113.618 66.426 114.17 67.4532 115.344 67.4532C116.379 67.4532 117 66.7684 116.931 65.7412H115.344V65.3988H117.345V67.6586Z" fill="white"/>
<path d="M119.347 63.002H122.591V63.3444H119.83V65.0564H122.453V65.3988H119.83V67.2477H122.66V67.5901H119.416V63.002H119.347Z" fill="white"/>
<path d="M124.317 63.002H126.457C127.216 63.002 127.907 63.3444 127.907 64.2346C127.907 64.8509 127.631 65.2618 127.009 65.3988C127.631 65.4672 127.769 65.8781 127.838 66.426C127.838 66.7684 127.838 67.3847 128.045 67.5901H127.562C127.424 67.3847 127.424 67.0423 127.424 66.8368C127.424 66.2205 127.355 65.4672 126.457 65.4672H124.801V67.5217H124.386V63.002H124.317ZM124.801 65.1933H126.457C127.009 65.1933 127.493 64.8509 127.493 64.3031C127.493 63.7552 127.147 63.4128 126.457 63.4128H124.801V65.1933Z" fill="white"/>
<path d="M134.119 63.002H134.602L136.465 67.6586H135.982L135.43 66.2205H133.29L132.738 67.6586H132.255L134.119 63.002ZM133.428 65.8096H135.292L134.395 63.4128L133.428 65.8096Z" fill="white"/>
<path d="M137.984 63.002H138.399V67.2477H141.022V67.5901H137.984V63.002Z" fill="white"/>
<path d="M142.609 63.002H143.024V65.8781C143.024 66.9738 143.507 67.3847 144.404 67.3847C145.301 67.3847 145.785 66.9738 145.785 65.8781V63.002H146.199V65.9466C146.199 66.9053 145.716 67.7271 144.404 67.7271C143.093 67.7271 142.609 66.9053 142.609 65.9466V63.002Z" fill="white"/>
<path d="M148.2 63.002H148.821L150.409 67.0423L151.997 63.002H152.618V67.6586H152.204V63.6868L150.616 67.6586H150.202L148.614 63.6868V67.6586H148.2V63.002Z" fill="white"/>
<path d="M154.826 63.002H155.24V67.6586H154.826V63.002Z" fill="white"/>
<path d="M157.381 63.002H157.864L160.556 66.9053V63.002H160.97V67.6586H160.487L157.795 63.7552V67.6586H157.381V63.002Z" fill="white"/>
<path d="M163.179 63.002H163.593V67.6586H163.179V63.002Z" fill="white"/>
<path d="M165.664 63.002H166.078V65.8781C166.078 66.9738 166.561 67.3847 167.459 67.3847C168.356 67.3847 168.839 66.9738 168.839 65.8781V63.002H169.253V65.9466C169.253 66.9053 168.77 67.7271 167.459 67.7271C166.147 67.7271 165.664 66.9053 165.664 65.9466V63.002Z" fill="white"/>
<path d="M171.255 63.002H171.876L173.464 67.0423L175.051 63.002H175.673V67.6586H175.258V63.6868L173.671 67.6586H173.257L171.669 63.6868V67.6586H171.255V63.002Z" fill="white"/>
<defs>
<linearGradient id="paint0_linear_361_1158" x1="8.7781" y1="42.5561" x2="88.1608" y2="42.5561" gradientUnits="userSpaceOnUse">
<stop stop-color="#6FB744"/>
<stop offset="1" stop-color="#00A2D6"/>
</linearGradient>
<linearGradient id="paint1_linear_361_1158" x1="0" y1="10.5058" x2="21.1798" y2="10.5058" gradientUnits="userSpaceOnUse">
<stop stop-color="#6FB744"/>
<stop offset="1" stop-color="#00A2D6"/>
</linearGradient>
</defs>
</svg>
