<svg width="251" height="61" viewBox="0 0 251 61" fill="none" xmlns="http://www.w3.org/2000/svg">
<path d="M29.0195 52.2227V47.8326C29.0195 43.0555 22.5037 38.3041 17.7456 34.8327C16.6768 34.0528 15.668 33.3192 14.8763 32.6839C13.5417 31.6297 11.6469 31.7943 10.4781 32.99L6.09708 24.7385C5.67984 23.9529 4.98541 23.3781 4.13946 23.1211C3.29644 22.8611 2.40191 22.9535 1.61888 23.3781C0.215671 24.1522 -0.338736 25.8562 0.207111 27.722L4.41667 41.9323C4.47382 42.1258 4.59385 42.2962 4.75675 42.4146L14.7906 49.7478V52.2202C14.3077 52.2433 13.919 52.639 13.919 53.1329V60.0704C13.919 60.5787 14.3277 60.9918 14.8307 60.9918C15.3336 60.9918 15.7423 60.5787 15.7423 60.0704V54.0542H28.0625V60.0704C28.0625 60.5787 28.4711 60.9918 28.9741 60.9918C29.4771 60.9918 29.8858 60.5787 29.8858 60.0704V53.1329C29.8915 52.6419 29.5025 52.2458 29.0195 52.2227ZM16.6196 52.214V49.2795C16.6196 49.2564 16.6082 49.2333 16.6053 49.2102C16.5996 49.1467 16.5853 49.086 16.5682 49.0225C16.551 48.9676 16.5367 48.9127 16.511 48.8636C16.4853 48.8116 16.451 48.7683 16.4167 48.7221C16.3767 48.673 16.3395 48.6268 16.291 48.5835C16.2738 48.5661 16.2624 48.5459 16.2424 48.5315L6.08264 41.1088L1.96168 27.2017C1.85023 26.8175 1.55587 25.5207 2.49324 25.0066C2.84189 24.8188 3.24196 24.7784 3.61924 24.8939C3.99653 25.0095 4.30798 25.2636 4.49372 25.616L9.54345 35.1297C9.48629 36.1839 9.91211 37.2439 10.7866 37.9342L18.543 44.1179C18.9374 44.4327 19.5118 44.3663 19.8262 43.9648C20.1377 43.5662 20.0719 42.9857 19.6747 42.668L11.9161 36.4814C11.6103 36.2417 11.416 35.8893 11.3731 35.4908C11.3274 35.0893 11.436 34.6965 11.676 34.3874C12.1733 33.7549 13.1278 33.6452 13.7565 34.1362C14.5739 34.7918 15.5998 35.5369 16.683 36.3313C20.8725 39.387 27.1997 44.0024 27.1997 47.8354V52.2168H16.62L16.6196 52.214ZM61.3672 23.3809C60.5899 22.9592 59.6983 22.8697 58.8524 23.1267C58.0064 23.3838 57.312 23.9585 56.8947 24.7441L52.528 33.0046C52.0021 32.4587 51.322 32.1005 50.5561 32.0081C49.6759 31.8983 48.8157 32.1467 48.1355 32.6926C47.3553 33.3165 46.3551 34.0414 45.2977 34.8126C40.5195 38.29 33.9747 43.0501 33.9747 47.8383V52.2313C33.5003 52.266 33.1259 52.653 33.1259 53.1411V60.0787C33.1259 60.587 33.5346 61 34.0376 61C34.5406 61 34.9492 60.587 34.9492 60.0787V54.0625H47.2467V60.0787C47.2467 60.587 47.6553 61 48.1583 61C48.6613 61 49.07 60.587 49.07 60.0787V53.1411C49.07 52.6473 48.6842 52.2516 48.1984 52.2284V49.7561L58.2323 42.4228C58.3951 42.3044 58.5152 42.134 58.5723 41.9405L62.7847 27.7273C63.342 25.8182 62.799 24.155 61.3672 23.3809ZM61.0357 27.1963L56.9148 41.1056L46.755 48.5342C46.735 48.5487 46.7265 48.5718 46.7065 48.5862C46.6579 48.6266 46.6207 48.6729 46.5807 48.7248C46.5436 48.7711 46.5121 48.8144 46.4864 48.8664C46.4607 48.9155 46.4435 48.9703 46.4292 49.0252C46.4121 49.0888 46.3978 49.1465 46.3921 49.213C46.3892 49.2361 46.3778 49.2563 46.3778 49.2823V52.2168L35.8011 52.2139V47.8324C35.8011 43.9882 42.1568 39.3642 46.3639 36.3024C47.4385 35.5197 48.453 34.7832 49.2703 34.1334C49.8876 33.6366 50.8278 33.7521 51.3222 34.376C51.568 34.6937 51.6766 35.0865 51.6309 35.4879C51.5852 35.8836 51.3937 36.236 51.0822 36.4815L43.3258 42.6652C42.9314 42.98 42.8628 43.5605 43.1743 43.962C43.4887 44.3606 44.0602 44.4299 44.4575 44.1151L52.211 37.9343C53.0769 37.2498 53.5027 36.21 53.4569 35.1702L58.5095 25.6129C58.6953 25.2635 59.0039 25.0064 59.384 24.8909C59.7641 24.7753 60.1642 24.8158 60.51 25.0035C61.4445 25.5147 61.15 26.8151 61.0357 27.1963ZM50.636 10.7161C50.6875 6.13538 48.7585 2.44681 45.4805 0.849733C43.2343 -0.244928 38.4732 -1.21537 31.5084 4.25786C24.5325 -1.21818 19.7684 -0.244854 17.5195 0.852616C14.2387 2.45272 12.3125 6.14093 12.3668 10.7219C12.4497 17.879 17.4223 27.7714 31.1309 34.0673C31.2509 34.1222 31.3795 34.1511 31.5081 34.1511C31.6367 34.1511 31.7653 34.1251 31.8854 34.0673C45.5882 27.7652 50.5563 17.8734 50.636 10.7161ZM31.5083 32.2101C18.8626 26.2661 14.2645 17.2227 14.1899 10.6954C14.147 6.85118 15.6874 3.78968 18.3137 2.51039C19.2196 2.06849 20.2284 1.84899 21.3173 1.84899C24.1465 1.84899 27.5016 3.32488 30.9342 6.14667C31.2714 6.42394 31.7515 6.42105 32.0859 6.14667C36.8299 2.24183 41.4255 0.916108 44.6891 2.50749C47.3154 3.787 48.8558 6.84561 48.813 10.6925C48.7387 17.2199 44.1462 26.2654 31.5091 32.2101L31.5083 32.2101Z" fill="url(#paint0_linear_748_650)"/>
<g clip-path="url(#clip0_748_650)">
<path d="M93.0865 38.729H82.9648V22.2119H93.0865V25.7858H87.6288V28.3937H92.6896V31.9676H87.6288V35.0585H93.0865V38.729Z" fill="white"/>
<path d="M103.685 38.729H99.1199V25.8824H94.9521V22.2119H107.852V25.8824H103.685V38.729Z" fill="white"/>
<path d="M120.442 38.729H110.32V22.2119H120.442V25.7858H114.984V28.3937H120.045V31.9676H114.984V35.0585H120.442V38.729Z" fill="white"/>
<path d="M129.055 22.2119C130.643 22.2119 131.933 22.4051 132.925 22.7915C133.918 23.1778 134.712 23.6608 135.208 24.4335C135.704 25.1096 136.002 26.0756 136.002 27.1381C136.002 27.8142 135.902 28.3937 135.605 28.9733C135.406 29.5528 135.009 30.0358 134.612 30.4221C134.215 30.8085 133.719 31.1949 133.124 31.5812L138.086 38.729H132.925L129.353 32.7403H128.162V38.729H123.598V22.2119H129.055ZM129.055 25.5926H128.162V29.3596H129.055C129.75 29.3596 130.345 29.1665 130.742 28.8767C131.239 28.5869 131.437 28.0074 131.437 27.2346C131.437 26.6551 131.239 26.2687 130.842 25.979C130.445 25.6892 129.849 25.5926 129.055 25.5926Z" fill="white"/>
<path d="M155.896 38.7289H149.842L143.69 27.0414H143.591C143.591 27.4277 143.69 27.8141 143.69 28.297C143.69 28.78 143.789 29.263 143.789 29.8425C143.789 30.3255 143.789 30.8084 143.789 31.1948V38.6323H139.721V22.1152H145.675L151.827 33.6095H151.926C151.926 33.2232 151.926 32.8368 151.827 32.3539C151.827 31.8709 151.827 31.388 151.728 30.905C151.728 30.422 151.728 29.9391 151.728 29.6493V22.2118H155.796V38.7289H155.896Z" fill="white"/>
<path d="M159.684 38.729V22.2119H164.348V38.729H159.684Z" fill="white"/>
<path d="M178.506 38.7289L177.712 35.638H172.155L171.262 38.7289H166.201L171.758 22.1152H177.911L183.567 38.7289H178.506ZM176.72 32.0641L176.025 29.3596C175.926 29.0698 175.827 28.6834 175.727 28.1039C175.628 27.5243 175.43 26.9448 175.331 26.3652C175.231 25.7857 175.033 25.3027 175.033 24.9164C174.934 25.3027 174.834 25.7857 174.735 26.3652C174.636 26.9448 174.437 27.4277 174.338 28.0073C174.239 28.5868 174.041 28.9732 173.941 29.3596L173.247 32.0641H176.72Z" fill="white"/>
<path d="M199.324 25.689C198.828 25.689 198.332 25.7856 197.836 26.0754C197.439 26.2686 197.042 26.6549 196.744 27.0413C196.446 27.4276 196.248 28.0072 196.049 28.5867C195.851 29.1663 195.851 29.8424 195.851 30.6151C195.851 31.6776 195.95 32.547 196.248 33.2231C196.546 33.8992 196.943 34.4788 197.439 34.8651C198.034 35.2515 198.729 35.4447 199.523 35.4447C200.316 35.4447 201.011 35.3481 201.706 35.1549C202.4 34.9617 203.095 34.672 203.79 34.3822V38.1492C202.996 38.439 202.301 38.7288 201.507 38.8254C200.713 38.922 199.92 39.0186 199.026 39.0186C197.141 39.0186 195.653 38.6322 194.462 37.9561C193.271 37.2799 192.477 36.2174 191.882 34.9617C191.286 33.706 191.088 32.2572 191.088 30.5186C191.088 29.2629 191.286 28.1038 191.584 27.1379C191.981 26.0754 192.477 25.2061 193.172 24.4333C193.866 23.6606 194.759 23.0811 195.752 22.6947C196.744 22.3083 197.935 22.0186 199.225 22.0186C200.019 22.0186 200.912 22.1151 201.805 22.3083C202.698 22.5015 203.591 22.7913 204.484 23.1776L203.095 26.6549C202.5 26.3651 201.805 26.0754 201.21 25.9788C200.713 25.7856 200.019 25.689 199.324 25.689Z" fill="white"/>
<path d="M217.761 38.7289L216.967 35.638H211.41L210.517 38.7289H205.456L211.013 22.1152H217.165L222.822 38.7289H217.761ZM215.975 32.0641L215.28 29.3596C215.181 29.0698 215.082 28.6834 214.982 28.1039C214.883 27.5243 214.685 26.9448 214.585 26.3652C214.486 25.7857 214.288 25.3027 214.288 24.9164C214.188 25.3027 214.089 25.7857 213.99 26.3652C213.891 26.9448 213.692 27.4277 213.593 28.0073C213.494 28.5868 213.295 28.9732 213.196 29.3596L212.502 32.0641H215.975Z" fill="white"/>
<path d="M230.295 22.2119C231.882 22.2119 233.172 22.4051 234.165 22.7915C235.157 23.1778 235.951 23.6608 236.447 24.4335C236.943 25.1096 237.241 26.0756 237.241 27.1381C237.241 27.8142 237.142 28.3937 236.844 28.9733C236.646 29.5528 236.249 30.0358 235.852 30.4221C235.455 30.8085 234.959 31.1949 234.363 31.5812L239.325 38.729H234.165L230.592 32.7403H229.402V38.729H224.837V22.2119H230.295ZM230.195 25.5926H229.302V29.3596H230.195C230.89 29.3596 231.485 29.1665 231.882 28.8767C232.379 28.5869 232.577 28.0074 232.577 27.2346C232.577 26.6551 232.379 26.2687 231.982 25.979C231.585 25.6892 231.089 25.5926 230.195 25.5926Z" fill="white"/>
<path d="M250.982 38.729H240.86V22.2119H250.982V25.7858H245.524V28.3937H250.585V31.9676H245.524V35.0585H250.982V38.729Z" fill="white"/>
</g>
<defs>
<linearGradient id="paint0_linear_748_650" x1="0.057882" y1="30.5154" x2="63.0263" y2="30.5154" gradientUnits="userSpaceOnUse">
<stop stop-color="#71B844"/>
<stop offset="1" stop-color="#00A2D6"/>
</linearGradient>
<clipPath id="clip0_748_650">
<rect width="168" height="17" fill="white" transform="translate(83 22)"/>
</clipPath>
</defs>
</svg>
